<?xml version="1.0" encoding="UTF-8" standalone="no"?>
<!-- Created with Inkscape (http://www.inkscape.org/) -->

<svg
   version="1.1"
   id="svg1"
   width="1927.3804"
   height="1927.5688"
   viewBox="0 0 1927.3804 1927.5688"
   xmlns="http://www.w3.org/2000/svg"
   xmlns:svg="http://www.w3.org/2000/svg">
  <defs
     id="defs1" />
  <g
     id="g3"
     transform="translate(-2166.0163,-26.856146)">
    <path
       style="fill:#cb2026;fill-opacity:1;stroke:none"
       d="m 3082.8078,758.32858 c -71.6291,-6.12856 -131.5321,-22.42242 -186.1924,-50.64515 -65.2571,-33.69413 -109.7145,-80.56496 -124.3769,-131.12889 -5.7187,-19.72128 -6.2346,-31.38059 -4.1129,-92.95661 l 0.1822,-5.28669 -70,-41.56601 c -38.5,-22.8613 -70.9782,-42.02639 -72.1738,-42.58908 -2.3621,-1.11172 8.6731,-7.70024 -160.1456,95.61436 -40.6204,24.85914 -71.8275,43.3492 -72.5,42.95592 -1.0367,-0.60634 -67.4538,-42.43775 -78.3082,-49.3208 l -4.1276,-2.6174 9.9739,-15.45181 c 146.6907,-227.25841 385.1884,-382.948235 653.2813,-426.458115 30.9661,-5.02561 50.1636,-7.31453 89.5,-10.67108 20.9993,-1.79186 110.7688,-1.80468 132,-0.0188 47.6764,4.01022 80.3783,8.37758 118.1742,15.78225 163.4319,32.01831 317.0907,106.664685 444.4568,215.913995 48.6953,41.76882 98.6284,94.7833 137.9848,146.5 23.2413,30.54054 56.4369,80.37196 54.6804,82.08327 -1.4117,1.3754 -81.7569,45.20964 -82.9039,45.2302 -0.5489,0.01 -50.6886,-28.84958 -105.0462,-60.3544 -31.2645,-18.12036 -63.9242,-37.11586 -89.3461,-51.99686 -6.325,-3.70241 -50.425,-29.34366 -98,-56.98055 -47.575,-27.63689 -108.325,-62.94819 -135,-78.46956 -26.675,-15.52137 -102.95,-59.85502 -169.5,-98.51922 -66.55,-38.6642 -125.5,-72.94894 -131,-76.18831 -5.5,-3.23936 -10.675,-5.717 -11.5,-5.50586 -0.825,0.21114 -41.325,23.10435 -90,50.87381 -48.675,27.76945 -104.5875,59.65825 -124.25,70.864 -19.6625,11.20575 -35.7433,20.61921 -35.7352,20.91879 0.013,0.49253 13.1705,8.97911 83.4852,53.84978 l 22,14.03909 10,-1.9639 c 81.8776,-16.08 147.9348,-18.34252 212.5,-7.27835 82.4588,14.13051 151.6607,49.7208 193.2076,99.36599 26.3411,31.47547 41.4085,65.30253 46.3384,104.03208 2.1361,16.78168 1.5293,37.88988 -1.4995,52.15857 -12.9229,60.87964 -63.0986,118.28826 -134.7785,154.20716 -42.6877,21.39084 -85.4126,33.90412 -137.268,40.20313 -15.8007,1.91935 -73.3602,2.79879 -90,1.3751 z"
       id="path3" />
    <path
       style="fill:#35469d;fill-opacity:1;stroke:none"
       d="m 3157.8078,1906.0406 v -48.3844 l 311.25,-181.7929 c 171.1875,-99.9861 336.7146,-196.6792 367.838,-214.8735 l 56.5879,-33.0805 0.6613,-69.5124 c 0.7442,-78.2368 0.8925,-225.0123 0.2273,-225.0123 -0.4359,0 -14.5843,8.1253 -80.0645,45.9803 -19.25,11.1287 -39.3362,22.7273 -44.636,25.7747 -8.8276,5.0758 -9.7385,5.8847 -10.8581,9.6428 -5.5366,18.5839 -25.9641,74.833 -33.6296,92.6022 -15.6649,36.3124 -48.8631,83.1834 -83.4908,117.8768 -55.9969,56.1031 -120.2185,89.8671 -184.8855,97.2018 -16.1111,1.8274 -43.5587,0.6614 -58.5695,-2.488 -77.9276,-16.3501 -125.9182,-75.4876 -137.6243,-169.5906 -1.9549,-15.7151 -1.6338,-60.8679 0.5618,-79 6.7871,-56.0494 22.7871,-108.0839 49.8131,-162 22.5567,-45 48.2997,-82.3431 80.5583,-116.85858 44.8909,-48.0317 100.708,-84.093 154.0457,-99.5232 22.4135,-6.4841 34.0004,-8.0661 59.2149,-8.0849 24.9937,-0.019 35.97,1.5156 54.3275,7.5938 19.4548,6.4415 27.7473,11.2734 47.2422,27.5269 21.4213,17.8597 27.2626,22.346 29.095,22.346 1.1917,0 38.1148,-19.1272 134.5819,-69.7171 l 23.7465,-12.4533 0.2535,-141.08127 0.2534,-141.08125 33.5,-18.41147 c 18.425,-10.12631 37.1748,-20.41728 41.6662,-22.86883 l 8.1661,-4.45735 8.9805,17.28529 c 87.6947,168.79225 122.6108,362.04898 100.1439,554.28526 -27.3428,233.956 -142.9676,454.6978 -319.0549,609.1145 -140.0296,122.7965 -310.4695,202.6376 -491.9018,230.4272 -34.7661,5.325 -59.1783,7.6767 -108.75,10.4763 l -9.25,0.5224 z"
       id="path2" />
    <path
       style="fill:#0e9a48;fill-opacity:1;stroke:none"
       d="m 3078.3078,1953.3053 c -193.783,-10.8363 -374.64,-76.5967 -528,-191.9831 -189.4511,-142.541 -319.6063,-348.9724 -365.9496,-580.4105 -7.967,-39.7872 -13.1288,-77.8748 -16.6055,-122.5271 -1.7201,-22.0919 -2.3404,-90.93248 -1.0407,-115.49998 6.2179,-117.5355 31.0386,-225.32067 76.3375,-331.5 12.9953,-30.46075 39.4891,-83.31729 41.3952,-82.58584 1.5905,0.61035 72.791,47.4775 78.1131,51.4173 l 3.25,2.40592 v 423.3366 423.3367 l 6.75,3.9678 c 13.9793,8.2172 227.7556,130.3783 228.9751,130.8462 1.0271,0.3942 1.2749,-16.1481 1.2749,-85.1048 v -85.594 l -10.8919,-13.5262 c -90.5108,-112.4011 -127.1896,-262.326 -90.4749,-369.8169 16.2772,-47.65548 47.1126,-84.32078 87.3668,-103.88508 35.9558,-17.4752 79.0178,-21.0382 124.5,-10.3014 101.1999,23.8899 202.4675,116.51738 257.4709,235.50368 67.6964,146.4443 52.2644,295.2427 -37.2673,359.339 -4.512,3.2302 -14.1661,8.812 -21.4536,12.4042 l -13.25,6.5311 v 115.2684 115.2684 l 98.4765,57.3445 98.4765,57.3444 0.024,49.75 c 0.022,46.7789 -0.081,49.7411 -1.7265,49.6018 -0.9625,-0.082 -8.05,-0.5005 -15.75,-0.9311 z"
       id="path1" />
  </g>
</svg>
